<?xml version="1.0" encoding="utf-8"?>

<!-- License Agreement at http://iconmonstr.com/license/ -->

<!DOCTYPE svg PUBLIC "-//W3C//DTD SVG 1.1//EN" "http://www.w3.org/Graphics/SVG/1.1/DTD/svg11.dtd">
<svg version="1.1" xmlns="http://www.w3.org/2000/svg" xmlns:xlink="http://www.w3.org/1999/xlink" x="0px" y="0px"
	 width="512px" height="512px" viewBox="0 0 512 512" enable-background="new 0 0 512 512" xml:space="preserve">
<path id="bookmark-26-icon" d="M377.342,148.683c-46.756,0-84.658,37.903-84.658,84.659s37.902,84.659,84.658,84.659
	s84.66-37.903,84.66-84.659S424.098,148.683,377.342,148.683z M362.939,278.942l-39.998-40.009l17.031-17.033l22.965,22.973
	l53.023-53.021l17.037,17.026L362.939,278.942z M364.607,347.297l18.709,104.622L256,383.829l-127.315,68.09l25.415-142.125
	L49.999,209.749l143.022-19.748L256,60.081l43.282,89.286c-23.811,22.187-36.6,52.269-36.6,83.974
	c0,30.627,11.928,59.421,33.586,81.077C314.893,333.043,338.797,344.462,364.607,347.297z"/>
</svg>
