<?xml version="1.0" encoding="utf-8"?>

<!-- License Agreement at http://iconmonstr.com/license/ -->

<!DOCTYPE svg PUBLIC "-//W3C//DTD SVG 1.1//EN" "http://www.w3.org/Graphics/SVG/1.1/DTD/svg11.dtd">
<svg version="1.1" xmlns="http://www.w3.org/2000/svg" xmlns:xlink="http://www.w3.org/1999/xlink" x="0px" y="0px"
	 width="512px" height="512px" viewBox="0 0 512 512" enable-background="new 0 0 512 512" xml:space="preserve">
<path id="bookmark-24-icon" d="M377.343,148.683c-46.756,0-84.66,37.902-84.66,84.658c0,46.757,37.904,84.659,84.66,84.659
	s84.658-37.902,84.658-84.659C462.001,186.585,424.099,148.683,377.343,148.683z M429.372,248.725H327.78v-28.301h101.592V248.725z
	 M364.606,347.297l18.709,104.622l-127.316-68.09l-127.314,68.09l25.414-142.125l-104.1-100.045l143.021-19.748l62.979-129.92
	l43.281,89.286c-23.809,22.187-36.598,52.269-36.598,83.974c0,30.627,11.926,59.421,33.584,81.077
	C314.892,333.043,338.796,344.462,364.606,347.297z"/>
</svg>
